<svg height="480pt" viewBox="-7 0 479 480" width="480pt" xmlns="http://www.w3.org/2000/svg"><path d="m200.5 216c-13.253906 0-24 10.746094-24 24s10.746094 24 24 24 24-10.746094 24-24c-.015625-13.25-10.75-23.984375-24-24zm0 32c-4.417969 0-8-3.582031-8-8s3.582031-8 8-8 8 3.582031 8 8c-.003906 4.417969-3.582031 7.996094-8 8zm0 0"/><path d="m461.085938 145.445312-80-56c-2.445313-1.710937-5.636719-1.921874-8.28125-.542968-2.648438 1.378906-4.304688 4.113281-4.304688 7.097656v16h-48v-104c0-4.417969-3.582031-8-8-8h-304c-.902344.101562-1.792969.28125-2.664062.539062-.625.246094-1.214844.570313-1.757813.96875-.269531.183594-.941406.621094-1.003906.679688-.714844.800781-1.34375 1.675781-1.882813 2.605469-.453125 1.007812-.6875 2.101562-.691406 3.207031v432c.007812 1.023438.210938 2.035156.601562 2.980469.453126.867187.988282 1.691406 1.59375 2.460937.292969.273438.605469.523438.9375.75.4375.371094.917969.695313 1.429688.960938.773438.324218 1.570312.582031 2.382812.777344l240 32c.351563.046874.703126.070312 1.054688.070312 2.121094 0 4.15625-.839844 5.660156-2.339844 1.5-1.503906 2.339844-3.539062 2.339844-5.660156v-24h56c4.417969 0 8-3.582031 8-8v-248h48v16c0 2.984375 1.660156 5.71875 4.304688 7.09375 2.644531 1.378906 5.835937 1.171875 8.28125-.539062l80-56c2.140624-1.496094 3.414062-3.945313 3.414062-6.554688s-1.273438-5.058594-3.414062-6.554688zm-220.585938 317.417969-224-29.867187v-415.859375l224 29.867187zm64-30.863281h-48v-392c0-4.011719-2.972656-7.398438-6.945312-7.929688l-120.527344-16.070312h175.472656v96h-24c-4.417969 0-8 3.582031-8 8v64c0 4.417969 3.582031 8 8 8h24zm-16-256v-48h80v48zm96 16.636719v-81.273438l58.046875 40.636719zm0 0"/><path d="m184.5 112c4.417969 0 8-3.582031 8-8v-32c0-3.980469-2.925781-7.355469-6.867188-7.917969l-112-16c-2.296874-.328125-4.621093.355469-6.375 1.875-1.75 1.519531-2.757812 3.722657-2.757812 6.042969v32c0 3.980469 2.925781 7.355469 6.867188 7.917969l112 16c.375.054687.753906.082031 1.132812.082031zm-8-17.222656-96-13.714844v-15.839844l96 13.714844zm0 0"/></svg>